<svg xmlns="http://www.w3.org/2000/svg" fill="none" viewBox="0 0 24 24" id="Hashnode--Streamline-Svg-Logos" height="24" width="24">
  <desc>
    Hashnode Streamline Icon: https://streamlinehq.com
  </desc>
  <path fill="#2962ff" fill-rule="evenodd" d="M0.521655 11.304775c-0.362207 0.362225 -0.362207 0.9494 0 1.311575l1.0492075 1.04925c0.3622075 0.362175 0.9493875 0.362175 1.3115625 0l1.04925 -1.04925c0.362175 -0.3622 0.362175 -0.9494 0 -1.311575l-1.04925 -1.0492c-0.3622 -0.362175 -0.94939 -0.362175 -1.3115625 0l-1.0492075 1.0492Zm2.16402 1.11485c0.25355 -0.25355 0.25355 -0.664575 0 -0.918075 -0.25351 -0.25355 -0.6645475 -0.25355 -0.91806 0 -0.253545 0.253525 -0.253545 0.664525 0 0.918075 0.2535475 0.253525 0.664515 0.253525 0.91806 0Z" clip-rule="evenodd" stroke-width="0.25"></path>
  <path fill="#000000" fill-rule="evenodd" d="M5.76635 12.6616c0.001475 -0.292125 0.18 -0.4633 0.436725 -0.4633 0.255275 0 0.40575 0.1638 0.404275 0.44265v1.33085h0.62855v-1.443c0.00145 -0.53115 -0.31135 -0.852775 -0.783475 -0.852775 -0.34375 0 -0.573925 0.1623 -0.677225 0.42935h-0.02655v-1.15525h-0.610825v3.021675h0.628525v-1.3102Zm2.444225 1.352975c0.3349 0 0.551775 -0.146075 0.66245 -0.35705h0.0177v0.314275h0.596075V12.44325c0 -0.54 -0.457375 -0.767225 -0.961975 -0.767225 -0.54295 0 -0.9 0.259675 -0.987075 0.6728l0.58135 0.0472c0.042775 -0.1505 0.177025 -0.261125 0.40275 -0.261125 0.21395 0 0.336425 0.1077 0.336425 0.293575v0.0089c0 0.14605 -0.154925 0.1652 -0.54885 0.203575 -0.44855 0.041325 -0.851325 0.1918 -0.851325 0.697875 0 0.448525 0.32015 0.67575 0.752475 0.67575Zm0.179975 -0.4338c-0.193275 0 -0.331975 -0.089975 -0.331975 -0.2626 0 -0.177075 0.146075 -0.264125 0.3674 -0.2951 0.1372 -0.01915 0.36145 -0.051625 0.4367 -0.101825v0.240525c0 0.237525 -0.1962 0.419 -0.472125 0.419Zm3.30325 -1.229c-0.056025 -0.417575 -0.39245 -0.67575 -0.9649 -0.67575 -0.579825 0 -0.961975 0.268525 -0.9605 0.705275 -0.001475 0.3393 0.212475 0.55915 0.655075 0.6477l0.39245 0.078175c0.197725 0.03985 0.287725 0.11215 0.290675 0.225725 -0.00295 0.1343 -0.149025 0.230175 -0.36885 0.230175 -0.22425 0 -0.373275 -0.095875 -0.41165 -0.280325l-0.618175 0.03245c0.059 0.4338 0.42785 0.70085 1.02835 0.70085 0.587225 0 1.0077 -0.2995 1.0092 -0.74655 -0.0015 -0.327575 -0.2154 -0.5238 -0.655075 -0.613775l-0.4102 -0.082625c-0.211 -0.04575 -0.289175 -0.118075 -0.2877 -0.22725 -0.001475 -0.135725 0.151975 -0.22425 0.346725 -0.22425 0.21835 0 0.3482 0.119525 0.379175 0.265575l0.5754 -0.0354Zm0.9098 0.309825c0.001475 -0.292125 0.179975 -0.4633 0.4367 -0.4633 0.25525 0 0.40575 0.1638 0.404275 0.44265v1.33085h0.628525v-1.443c0.001475 -0.53115 -0.311325 -0.852775 -0.78345 -0.852775 -0.343775 0 -0.573925 0.1623 -0.6772 0.42935h-0.026575v-1.15525h-0.6108v3.021675h0.628525v-1.3102Zm2.426475 0c0.001475 -0.292125 0.175575 -0.4633 0.42935 -0.4633 0.2523 0 0.404275 0.16525 0.402775 0.44265v1.33085h0.62855v-1.443c0 -0.528175 -0.309825 -0.852775 -0.781975 -0.852775 -0.3364 0 -0.579825 0.16525 -0.681625 0.42935h-0.0266v-0.399825h-0.599v2.26625h0.628525v-1.3102Zm2.813775 1.35445c0.687575 0 1.115425 -0.470675 1.115425 -1.168525 0 -0.702325 -0.42785 -1.1715 -1.115425 -1.1715 -0.68755 0 -1.115375 0.469175 -1.115375 1.1715 0 0.69785 0.427825 1.168525 1.115375 1.168525Zm0.002975 -0.4869c-0.3172 0 -0.4795 -0.29065 -0.4795 -0.686075 0 -0.395425 0.1623 -0.6875 0.4795 -0.6875 0.3113 0 0.4736 0.292125 0.4736 0.6875 0 0.395425 -0.1623 0.686075 -0.4736 0.686075Zm2.19005 0.479525c0.3659 0 0.55625 -0.210975 0.6433 -0.39985h0.02655v0.362975h0.6197V10.9501h-0.627075v1.1361h-0.019175c-0.084125 -0.184425 -0.2656 -0.410175 -0.64475 -0.410175 -0.497225 0 -0.917725 0.38655 -0.917725 1.165575 0 0.758375 0.4028 1.167075 0.919175 1.167075Zm0.1992 -0.500175c-0.30835 0 -0.476575 -0.27445 -0.476575 -0.669825 0 -0.3925 0.16525 -0.662475 0.476575 -0.662475 0.3054 0 0.476575 0.2582 0.476575 0.662475 0 0.404225 -0.17415 0.669825 -0.476575 0.669825Zm2.4737 0.50755c0.560675 0 0.93835 -0.27295 1.0269 -0.69345l-0.581325 -0.03835c-0.06345 0.1726 -0.225725 0.2626 -0.43525 0.2626 -0.314275 0 -0.51345 -0.208025 -0.51345 -0.5459v-0.001475h1.5433v-0.172625c0 -0.770175 -0.46625 -1.150825 -1.06525 -1.150825 -0.666925 0 -1.0992 0.4736 -1.0992 1.17295 0 0.71855 0.4264 1.167075 1.124275 1.167075Zm-0.503125 -1.406075c0.0133 -0.2582 0.209525 -0.464775 0.48835 -0.464775 0.272975 0 0.461825 0.194775 0.4633 0.464775h-0.95165Z" clip-rule="evenodd" stroke-width="0.25"></path>
</svg>